# xmcd
#
# Track frame offsets:
#	150
#	18151
#	38576
#	58885
#	76990
#	97614
#	117197
#	137897
#	155944
#	173455
#	191622
#	211781
#	231810
#	247449
#	262431
#	282887
#
# Disc length: 4013 seconds
#
# Revision: 0
# Processed by: cddbd v1.5.2PL0 Copyright (c) Steve Scherf et al.
# Submitted via: dBpowerAMP V4.0
#
DISCID=df0fab10
DTITLE=No Mercy - Greatest Hits
DYEAR=2006
DGENRE=Pop
TTITLE0=Missing
TTITLE1=Where do you go
TTITLE2=When i die
TTITLE3=Please don't go
TTITLE4=Kiss you all over
TTITLE5=Hello how are you
TTITLE6=More than a feeling
TTITLE7=My promise to you
TTITLE8=D'yer mak r
TTITLE9=Baby come back
TTITLE10=Full moon
TTITLE11=You really got me
TTITLE12=Conzuela Biaz
TTITLE13=More, more, more
TTITLE14=Baby y was made for loving you
TTITLE15=Don't make me live without you
EXTD=No Mercy - Greatest Hits
EXTT0=
EXTT1=
EXTT2=
EXTT3=
EXTT4=
EXTT5=
EXTT6=
EXTT7=
EXTT8=
EXTT9=
EXTT10=
EXTT11=
EXTT12=
EXTT13=
EXTT14=
EXTT15=
PLAYORDER=
